<?xml version="1.0" standalone="no"?>
<!DOCTYPE svg PUBLIC "-//W3C//DTD SVG 20010904//EN"
 "http://www.w3.org/TR/2001/REC-SVG-20010904/DTD/svg10.dtd">
<svg version="1.0" xmlns="http://www.w3.org/2000/svg"
 width="1024.000000pt" height="1024.000000pt" viewBox="0 0 1024.000000 1024.000000"
 preserveAspectRatio="xMidYMid meet">
<metadata>
Created by potrace 1.11, written by Peter Selinger 2001-2013
</metadata>
<g transform="translate(0.000000,1024.000000) scale(0.100000,-0.100000)"
fill="#000000" stroke="none">
<path d="M5468 9906 c-1 -2 -469 -6 -1038 -10 -569 -3 -1075 -8 -1125 -11
-161 -7 -296 -15 -328 -20 -18 -2 -59 -7 -92 -10 -130 -14 -269 -37 -375 -61
-36 -9 -76 -18 -90 -20 -77 -15 -301 -87 -410 -131 -80 -33 -282 -129 -325
-156 -470 -286 -784 -639 -1004 -1126 -104 -231 -190 -538 -236 -846 -5 -38
-8 -57 -20 -170 -2 -25 -7 -82 -10 -127 -3 -46 -8 -108 -10 -138 -2 -30 -7
-107 -10 -170 -39 -682 -39 -2840 -1 -3545 13 -243 15 -288 21 -425 3 -80 7
-157 9 -170 3 -14 7 -47 10 -75 9 -78 16 -128 22 -155 3 -14 7 -38 10 -55 26
-156 149 -509 236 -677 17 -35 32 -65 33 -68 2 -14 86 -155 133 -225 165 -240
430 -498 678 -658 181 -117 466 -250 644 -301 235 -67 440 -112 599 -131 30
-4 62 -8 72 -10 9 -2 55 -6 101 -10 45 -4 99 -8 118 -10 19 -2 91 -6 160 -10
69 -4 151 -8 183 -10 56 -4 315 -13 602 -21 205 -6 2008 -6 2225 0 268 8 512
16 610 21 494 26 547 30 750 61 107 16 136 21 200 35 25 6 52 12 60 14 204 44
438 126 640 225 453 223 822 595 1059 1069 74 146 182 437 206 550 2 9 13 55
24 102 22 94 58 296 67 374 3 28 7 60 9 72 2 12 6 63 10 115 4 51 9 111 11
133 25 283 25 3842 0 3995 -3 14 -7 68 -11 120 -6 97 -10 134 -20 205 -3 22
-8 58 -10 80 -3 22 -9 60 -15 85 -5 25 -12 59 -14 75 -18 110 -82 356 -125
475 -176 492 -455 876 -846 1165 -135 100 -212 148 -335 209 -52 26 -102 51
-111 56 -45 23 -258 105 -314 120 -16 5 -61 18 -100 29 -38 12 -79 23 -90 25
-11 3 -50 12 -87 20 -78 19 -202 42 -268 51 -25 3 -52 8 -60 10 -8 2 -46 6
-85 10 -38 3 -81 8 -95 10 -94 16 -407 24 -1160 31 -360 3 -660 7 -667 9 -6 2
-13 2 -15 1z m1247 -869 c39 -3 124 -8 190 -12 66 -3 138 -8 160 -10 22 -2 69
-7 105 -10 143 -13 356 -40 390 -50 8 -2 34 -7 57 -10 73 -10 267 -62 339 -90
303 -121 532 -294 712 -538 23 -31 42 -61 42 -67 0 -5 4 -10 8 -10 7 0 133
-244 153 -295 43 -115 88 -304 114 -480 9 -60 18 -121 20 -135 2 -14 6 -54 10
-90 3 -36 7 -85 10 -110 2 -25 7 -85 10 -135 3 -49 8 -115 10 -145 27 -357 27
-3155 0 -3455 -2 -22 -6 -87 -10 -144 -3 -57 -8 -118 -10 -135 -2 -17 -6 -60
-10 -96 -12 -118 -35 -286 -50 -360 -2 -14 -10 -50 -16 -80 -63 -320 -214
-598 -450 -831 -175 -173 -441 -333 -654 -393 -96 -27 -307 -71 -390 -81 -27
-3 -61 -8 -75 -10 -38 -7 -171 -20 -290 -30 -91 -7 -162 -12 -345 -22 -186
-11 -3007 -10 -3205 0 -190 10 -307 18 -465 32 -47 4 -158 17 -180 21 -11 2
-38 6 -60 9 -36 4 -228 38 -280 49 -350 75 -708 304 -920 591 -100 136 -226
365 -239 437 -2 12 -9 41 -14 63 -11 39 -16 64 -27 123 -3 15 -10 47 -15 72
-14 65 -48 266 -55 325 -3 28 -7 64 -9 80 -2 17 -7 59 -11 95 -4 36 -8 79 -10
95 -2 17 -7 84 -10 150 -4 66 -9 143 -11 170 -24 378 -24 3003 1 3280 2 22 6
92 10 157 3 64 8 127 10 140 3 12 7 60 11 106 3 46 7 91 8 100 2 9 7 40 10 67
11 82 15 108 21 140 3 17 10 55 16 85 6 30 12 66 15 80 22 114 67 248 129 383
25 55 112 208 124 217 3 3 23 30 43 60 36 53 149 175 217 233 43 37 196 147
205 147 4 0 26 13 49 28 47 31 56 36 175 86 125 54 337 109 502 131 25 3 56 8
70 10 33 6 90 13 170 21 36 3 79 8 95 9 17 2 73 6 125 10 52 3 120 8 150 10
30 3 106 8 169 10 63 3 117 7 119 10 6 6 2956 -1 3037 -8z"/>
<path d="M7580 8225 c-149 -32 -272 -113 -359 -235 -116 -161 -127 -388 -29
-573 49 -93 166 -206 259 -250 254 -121 529 -52 695 174 160 218 140 543 -45
729 -107 107 -224 158 -376 164 -49 1 -115 -3 -145 -9z"/>
<path d="M5018 7575 c-2 -2 -43 -5 -93 -9 -88 -6 -130 -11 -190 -20 -16 -3
-48 -8 -70 -11 -143 -22 -380 -96 -545 -171 -427 -193 -833 -555 -1085 -969
-237 -387 -343 -784 -343 -1275 1 -155 17 -377 32 -427 3 -10 8 -38 11 -63 10
-72 59 -262 84 -325 5 -11 23 -58 41 -105 146 -377 426 -744 790 -1033 8 -7
31 -23 50 -37 19 -13 40 -28 45 -33 60 -51 274 -168 445 -245 90 -40 313 -109
406 -125 16 -3 54 -10 84 -16 131 -25 274 -36 470 -36 156 1 206 3 353 20 224
25 525 118 747 231 88 45 255 144 294 175 6 5 58 45 116 91 305 238 581 589
729 926 104 236 175 518 196 782 6 78 7 407 1 435 -2 11 -7 58 -11 105 -4 47
-9 88 -11 91 -2 3 -6 26 -9 50 -3 24 -7 51 -10 59 -2 8 -6 26 -9 40 -13 75
-81 299 -111 365 -8 17 -25 57 -39 90 -14 33 -33 76 -43 95 -60 112 -106 190
-118 200 -8 7 -15 16 -15 21 0 33 -200 280 -337 416 -419 415 -909 645 -1493
699 -50 5 -358 12 -362 9z m282 -859 c56 -5 98 -11 195 -30 141 -27 347 -110
477 -192 76 -48 181 -129 252 -195 86 -80 233 -250 245 -283 2 -6 7 -13 11
-16 17 -13 100 -164 132 -240 45 -106 88 -249 103 -341 3 -19 10 -59 15 -89 9
-55 7 -396 -3 -436 -3 -12 -8 -39 -12 -60 -11 -76 -15 -90 -39 -169 -89 -296
-253 -545 -501 -760 -244 -211 -539 -340 -856 -371 -123 -13 -422 -6 -448 10
-3 2 -26 7 -50 11 -138 20 -340 98 -483 185 -172 105 -272 190 -440 377 -51
57 -158 223 -202 315 -146 304 -190 671 -121 1023 32 162 97 333 180 471 167
276 429 518 698 644 114 53 247 100 332 116 11 2 31 6 45 9 61 12 90 15 170
21 47 4 86 7 87 8 3 3 152 -3 213 -8z"/>
<path d="M4969 6626 c-2 -2 -31 -7 -64 -11 -175 -18 -379 -89 -555 -193 -210
-124 -432 -351 -554 -568 -85 -152 -155 -363 -173 -526 -10 -86 -10 -338 0
-423 9 -70 42 -209 72 -301 31 -92 126 -271 193 -360 57 -78 240 -270 297
-314 129 -99 303 -195 433 -239 80 -27 213 -58 289 -68 78 -10 343 -10 423 0
188 23 412 101 558 193 29 19 56 34 61 34 5 0 11 3 13 8 2 4 29 27 61 50 127
94 283 261 371 395 99 151 178 352 212 537 19 104 25 376 11 490 -29 242 -128
482 -285 695 -63 85 -254 270 -347 337 -177 125 -409 218 -635 254 -43 7 -375
15 -381 10z m-414 -733 c10 -3 39 -53 66 -110 26 -56 52 -103 56 -104 4 0 17
-2 28 -4 45 -8 103 -17 145 -22 51 -6 66 -15 73 -44 4 -16 -15 -41 -84 -110
-49 -50 -87 -94 -85 -98 3 -4 12 -49 21 -101 28 -160 10 -175 -122 -104 -48
26 -93 51 -100 56 -8 7 -44 -7 -110 -43 -112 -61 -126 -65 -148 -42 -18 17
-17 30 9 176 l13 78 -83 77 c-65 60 -84 83 -84 104 0 37 19 45 146 63 59 8
108 16 109 17 0 2 20 46 44 98 51 113 66 129 106 113z m1232 -105 c29 -60 56
-108 60 -109 4 0 17 -2 28 -5 11 -2 47 -6 80 -10 97 -10 129 -24 133 -58 3
-24 -8 -39 -81 -107 l-84 -79 18 -108 c24 -136 24 -136 -5 -152 -22 -11 -34
-7 -129 44 l-104 56 -102 -57 c-92 -50 -105 -54 -128 -44 -24 11 -25 14 -19
70 4 32 13 87 20 122 l13 64 -88 87 c-68 67 -86 91 -82 107 8 33 23 39 118 52
50 6 97 13 105 14 8 2 19 4 23 4 4 1 30 48 57 105 27 57 55 106 62 109 39 16
53 2 105 -105z m-1322 -1088 c66 -16 147 -33 180 -36 33 -4 63 -8 66 -10 28
-16 576 -24 719 -10 141 14 275 36 368 61 118 31 125 31 164 -4 29 -26 33 -35
31 -78 -2 -94 -87 -237 -190 -323 -262 -218 -613 -298 -948 -216 -122 30 -322
131 -405 206 -14 12 -34 30 -46 39 -37 30 -112 141 -134 199 -12 31 -23 76
-24 100 -2 38 2 47 31 73 19 16 41 29 51 29 9 0 71 -14 137 -30z"/>
</g>
</svg>
